<?xml version="1.0" encoding="UTF-8" standalone="no"?>
<!-- Created with Inkscape (http://www.inkscape.org/) -->

<svg
   xmlns:dc="http://purl.org/dc/elements/1.1/"
   xmlns:cc="http://creativecommons.org/ns#"
   xmlns:rdf="http://www.w3.org/1999/02/22-rdf-syntax-ns#"
   xmlns:svg="http://www.w3.org/2000/svg"
   xmlns="http://www.w3.org/2000/svg"
   xmlns:sodipodi="http://sodipodi.sourceforge.net/DTD/sodipodi-0.dtd"
   xmlns:inkscape="http://www.inkscape.org/namespaces/inkscape"
   width="200"
   height="200"
   viewBox="0 0 52.916666 52.916666"
   version="1.1"
   id="svg8"
   inkscape:version="0.92.3 (2405546, 2018-03-11)"
   sodipodi:docname="habr.svg">
  <defs
     id="defs2" />
  <sodipodi:namedview
     id="base"
     pagecolor="#ffffff"
     bordercolor="#666666"
     borderopacity="1.0"
     inkscape:pageopacity="0.0"
     inkscape:pageshadow="2"
     inkscape:zoom="2.8"
     inkscape:cx="1.0308471"
     inkscape:cy="81.68357"
     inkscape:document-units="mm"
     inkscape:current-layer="layer1"
     showgrid="false"
     units="px"
     inkscape:window-width="1878"
     inkscape:window-height="1052"
     inkscape:window-x="42"
     inkscape:window-y="0"
     inkscape:window-maximized="1" />
  <metadata
     id="metadata5">
    <rdf:RDF>
      <cc:Work
         rdf:about="">
        <dc:format>image/svg+xml</dc:format>
        <dc:type
           rdf:resource="http://purl.org/dc/dcmitype/StillImage" />
        <dc:title />
      </cc:Work>
    </rdf:RDF>
  </metadata>
  <g
     inkscape:label="Layer 1"
     inkscape:groupmode="layer"
     id="layer1"
     transform="translate(0,-244.08334)">
    <circle
       style="fill:#495057;fill-opacity:1;stroke-width:0.59030539"
       id="path816"
       cx="26.458334"
       cy="270.54169"
       r="26.458334" />
    <g
       transform="matrix(0.2998611,0,0,-0.2998611,-53.589022,323.61668)"
       inkscape:label="ink_ext_XXXXXX"
       id="g3791"
       style="fill:#ffffff;fill-opacity:1">
      <g
         transform="scale(0.1)"
         id="g3793"
         style="fill:#ffffff;fill-opacity:1">
        <path
           inkscape:connector-curvature="0"
           id="path3813"
           style="fill:#ffffff;fill-opacity:1;fill-rule:evenodd;stroke:none"
           d="m 2933.221,1646.7919 c 4.17,-1.62 8.64,-3.3 13.37,-5.02 1.86,5.5 3.4,11.95 4.1,19.22 -6.35,0.09 -12.57,0.23 -18.61,0.41 0.44,-5.06 0.82,-10.05 1.14,-14.61 z m -202.81,506.64 c 23.68,-5.99 55.57,-12.82 79.35,-13.19 -42.36,57.73 -111.37,71.12 -174.15,54.07 41.58,-9.14 72.21,-23.77 94.8,-40.88 z m 106.26,-8.52 c 9.31,4.73 17.26,13.01 23.8,22.23 -13.68,9.25 -31.39,18.07 -54.23,24.81 -2.08,-2.57 -3.9,-4.77 -5.36,-6.52 16.02,-12.9 27.54,-27.18 35.79,-40.52 z m 34.75,40.61 c 7.4,14.68 11.2,27.33 11.23,27.41 v 0 c -0.3,-1.2 -2.25,-14.05 -8.7,-29.13 12.84,-8.9 22.66,-18.19 30.06,-26.75 11.08,11.03 29.96,33.7 30.83,60.83 1.16,36.51 -26.96,39.32 -27.03,39.33 -2.29,0.25 -3.95,2.32 -3.7,4.61 0.25,2.29 2.32,3.95 4.61,3.7 0.11,-0.01 35.87,-3.6 34.46,-47.91 -0.96,-30.42 -22.01,-55.37 -33.87,-67.07 3.09,-4.03 5.64,-7.82 7.7,-11.21 l 48.23,35.14 c 27.19,39.08 25.32,79.54 25.32,79.7 -0.07,2.29 1.74,4.22 4.04,4.3 2.31,0.07 4.23,-1.75 4.31,-4.05 0,-0.13 1.47,-32.09 -16.53,-67.46 l 155.82,113.52 -209.39,-187.69 c 5.36,-15.1 5.95,-28.47 4.58,-41.31 l 2.56,-0.94 c 50.2,33.02 107.29,55.39 107.45,55.47 v 0 c -0.14,-0.08 -39.12,-32.75 -83.84,-64.9 9.75,-4.17 20.24,-9.01 31.09,-14.58 10.85,6.22 29.02,15.69 48.94,22.12 15.2,18.28 26.34,24.89 26.39,24.92 1.56,0.98 3.63,0.5 4.61,-1.07 0.97,-1.57 0.49,-3.64 -1.08,-4.61 -0.03,-0.03 -7.31,-4.34 -18.11,-15.88 5.51,1.35 11.05,2.39 16.54,2.99 11.72,1.29 20.63,-0.16 27.42,-2.99 5.41,6.72 10.1,13.88 13.54,21.39 16.83,36.77 -11.27,20.76 -11.34,20.71 -1.61,-0.9 -3.66,-0.32 -4.56,1.29 -0.9,1.61 -0.32,3.65 1.29,4.55 0.13,0.07 46.12,26.27 20.68,-29.32 -3.5,-7.66 -8.2,-14.94 -13.63,-21.8 13.82,-9.11 15.39,-24.4 15.39,-24.47 0.25,-2.29 -1.4,-4.36 -3.69,-4.61 -2.3,-0.25 -4.37,1.4 -4.62,3.7 -0.01,0.04 -1.21,11.9 -12.61,18.81 -18.17,-20.36 -41.8,-36.18 -56.48,-44.94 26.22,-18.45 51.06,-41.26 69.08,-68.96 27.87,23.49 52.58,29.5 60.33,-11.31 v 0 l 0.04,-0.15 v 0 l 0.47,-2.52 c 1.95,3.01 3.92,5.95 5.92,8.79 5.3,7.59 10.3,12.7 14.97,15.95 0.82,2.32 1.21,3.61 1.22,3.64 0.55,1.76 2.43,2.75 4.2,2.2 1.02,-0.31 1.78,-1.09 2.13,-2.02 20.33,6.35 32.53,-22.13 32.58,-22.24 0.74,-1.68 -0.01,-3.66 -1.69,-4.41 -1.69,-0.75 -3.66,0 -4.41,1.69 -0.04,0.08 -10.84,25.34 -28.85,15.81 -3.47,-9.27 -10.76,-26.75 -22.83,-46.16 1.72,-23.94 1.27,-58.98 -10.36,-91.73 l 1.75,-0.94 c -1.79,-3.27 -3.7,-6.3 -5.71,-9.09 -4.73,-10.83 -10.84,-21.25 -18.67,-30.74 -35.83,-43.45 -77.89,-54.09 -99.18,-56.61 1.97,-11.85 2.18,-25.39 -0.4,-40.73 24.07,0.3 49.01,0.84 73.18,1.72 40.34,1.46 78.46,3.88 106.6,7.67 18.61,2.51 29.05,6.08 34.07,9.53 -5.55,-0.47 -33.41,0.51 -14.89,12.02 8.75,5.47 18.31,5.66 24.64,2.96 4.61,-1.98 7.91,-5.46 9.11,-9.9 1.2,-4.5 0.19,-9.43 -3.88,-14.07 -5.73,-6.5 -19.76,-13.46 -46.83,-17.1 -28.64,-3.86 -67.33,-6.31 -108.23,-7.8 -25.61,-0.93 -52.13,-1.49 -77.6,-1.77 -4.67,-16 -11.7,-29.35 -19.71,-40.44 39.04,-9.51 84.79,-16.79 133.35,-16.79 139.62,0 208.79,25.04 208.79,25.04 0,0 -83.32,-42.29 -186.7,-46.49 -3.3,-11.02 -13.43,-27.92 -44.51,-27.92 -32.97,0 -78.41,22.48 -101.63,35.3 20.54,-29.44 23.16,-69.49 23.18,-69.63 0.17,-2.3 -1.56,-4.31 -3.86,-4.48 -2.31,-0.18 -4.31,1.56 -4.49,3.86 -0.01,0.16 -3.6,54.58 -34.9,79.91 l -6.89,1.32 c -11.94,-11.07 -23.95,-18.3 -32.54,-22.66 l 98.78,-118.44 -8.59,-7.61 -101.01,113.83 c -1.91,-1.93 -4.14,-4.06 -6.71,-6.3 -6.88,-13.72 -18.34,-32.44 -36.67,-52.85 13.79,-2.93 35.57,-11.07 53.97,-33.68 30.55,-37.55 -8.27,-70.53 -8.37,-70.64 l -3,2.9 c 0.08,0.09 30.69,30.76 4.89,62.48 -19.48,23.94 -42.84,30.09 -54.27,31.66 -8.23,-8.55 -17.67,-17.31 -28.49,-26.07 8.87,-13.28 17.57,-28.16 22.53,-41.58 3.97,-10.75 6.75,-23.55 6.37,-36.19 -1.34,-43.72 -41.2,-58.02 -80.05,-56.83 -10.8,0.33 -21.82,2.22 -32.82,5.27 5.39,-24.46 8.33,-54.07 5.49,-88.59 -9.9,-119.68 -112.25,-111.86 -112.55,-111.89 v 0 c 0.28,0.02 95.53,7.07 104.21,112.55 2.94,35.81 -1.21,66.41 -8.05,91.31 -17.44,5.99 -34.66,14.55 -50.72,24.08 -7.01,-11.64 -18.57,-20.34 -37.54,-19.84 -4.29,0.12 -8.45,0.85 -12.45,2.06 -8.55,-2.46 -18.76,-0.81 -30.93,7.45 -8.5,5.77 -15.63,12.63 -21.61,19.86 -16.45,-24.36 -33.56,-48.97 -51.03,-73.12 -2.79,-53.67 -7.67,-105.63 -15.99,-147.16 -12.2,-60.89 -23.2,-104.14 -56.41,-91.91 v 0 c 19.43,-3.9 34.12,32.75 44.37,83.88 7.84,39.15 12.88,87.97 16.07,138.8 -25.38,-34.46 -51.33,-67.64 -76.93,-97.35 -19.15,-22.24 -42.14,-46.17 -63.38,-52.73 v 0 c 45.45,43.21 94.58,104.03 141.38,168.5 1.32,24.39 2.24,49.05 2.88,73.12 -45.45,-60.41 -93.6,-119.72 -137.06,-163.66 -166.47,-154.98 -52.46,49.26 -44.77,40.59 v 0 c -0.2,-0.37 -71.62,-136.13 35.39,-27.95 46.11,46.61 98.22,109.77 146.95,172.82 l 0.09,4.92 c -11.03,2.31 -22.7,5.26 -34.23,9 -4.73,-5.41 -9.31,-10.58 -13.71,-15.5 -11.53,-56.04 -47.48,-97.11 -47.59,-97.25 -1.52,-1.73 -4.16,-1.9 -5.89,-0.39 -1.74,1.51 -1.92,4.15 -0.4,5.89 0.1,0.12 28.52,32.59 42.05,78.7 -4.55,-4.96 -8.84,-9.57 -12.82,-13.76 -43.88,-61.21 -61.35,-40 -67.69,-33.84 -1.5,1.75 -1.29,4.4 0.46,5.89 1.75,1.5 4.39,1.3 5.89,-0.45 0.03,-0.04 10.47,-13.13 55.29,34.16 6.82,7.19 14.56,15.58 22.98,24.95 1.15,6.03 1.99,12.24 2.46,18.59 l -4.03,1.74 c -15.15,-10.07 -36.27,-16.63 -65.68,-14.25 -3.88,0.32 -7.65,0.77 -11.33,1.34 -8.06,-11.72 -19.48,-20.16 -32.48,-25.11 -14.45,-5.5 -30.91,-6.7 -46.96,-3.3 -16,3.39 -31.63,11.36 -44.46,24.21 -14.63,14.63 -25.61,35.58 -29.32,63.22 v 0.02 c -7.53,56.24 20.57,87.26 46.74,103.65 -4.9,11.88 -7.47,20.55 -8.26,23.38 -4.68,3.71 -9.37,7.57 -14.02,11.55 l -2.41,-0.65 c 0,0.01 -0.34,1.27 -0.79,3.43 -4.1,3.59 -8.14,7.28 -12.07,11.05 l -0.06,-0.06 -0.53,0.62 c -22.76,21.92 -41.82,46.5 -47.3,70.7 -8.16,36.14 11.26,66.66 33.01,88.32 l 0.58,0.63 0.02,-0.03 c 6.39,6.3 12.95,11.82 19.05,16.51 2.75,17.84 7.72,33.65 14.04,47.59 -2.51,19.14 -3.69,38.85 -2.94,58.51 0.36,9.44 1.16,18.9 2.47,28.26 -7.85,-1.88 -15.98,-4.59 -24.29,-8.33 -10.17,-4.58 -18.41,-9.73 -24.97,-15.22 -12.69,-10.61 -19.13,-22.52 -21.31,-34.09 -0.36,-1.95 -0.61,-3.89 -0.75,-5.82 3.93,-0.65 7.92,-1.57 11.84,-2.73 19.13,-5.65 37.36,-17.31 40.85,-31.28 2.08,-8.35 1.33,-15.26 -1.39,-20.4 -2.18,-4.13 -5.53,-7.06 -9.68,-8.72 -3.82,-1.54 -8.28,-1.92 -13.02,-1.07 v -0.03 c -7.72,1.38 -16.48,6.18 -24.4,14.75 -11.36,-0.12 -46.76,1.84 -45.37,30.83 0.35,7.43 4.14,12.62 10.17,15.9 l 0.02,-0.02 c 4.73,2.57 10.87,3.78 17.65,3.87 0.18,2.38 0.49,4.77 0.94,7.18 2.71,14.41 10.55,29.08 25.87,41.89 7.46,6.25 16.72,12.06 28.05,17.16 11.06,4.99 21.86,8.28 32.18,10.32 6.61,33.33 20.18,65.23 43.71,92.69 -16.21,15.46 -40.34,35 -75.06,55.75 v 0 c 44.78,-4.6 74.13,-22.13 92.18,-38.24 16.13,14.29 33.33,23.43 50.89,28.66 5.74,3.81 11.48,6.93 17.18,9.43 -13.48,19.56 -44.17,53.21 -110.3,88.03 v 0 c 83,-19.49 119.13,-56.03 134.13,-78.69 0.33,0.25 1.04,0.8 2.1,1.55 l 0.1,0.07 0.1,0.07 0.11,0.08 0.56,0.43 0.02,-0.02 1.19,0.8 c 3.75,4.44 8.18,9.43 13.31,14.76 -15,21.72 -43.73,54.28 -97.18,91.1 v 0 c 62.3,-17.26 97.02,-48.32 115.78,-73.15 60.57,54.15 137,82.56 215.47,81.42 37.73,-0.58 68.82,-5.57 94.41,-13.09 20.32,26.98 48.05,70.35 36.84,93.79 -6.94,14.55 -20.09,22.69 -35.48,22.18 -14.18,-0.48 -30.24,-4.92 -45.74,-12.32 -14.32,-6.86 -28.15,-16.25 -39.55,-27.41 v 0 c -12.21,-11.94 -15.11,-22.35 -12.87,-29.99 1.05,-3.61 3.26,-6.66 6.16,-8.97 2.97,-2.38 6.69,-4 10.63,-4.67 38.03,-6.48 19.53,40.81 9.88,22.44 -1.44,-2.73 -4.5,-4.28 -7.46,-3.4 -31.5,9.27 57.69,33.26 27.22,-13.82 -7.5,-11.58 -19.9,-15.36 -31.05,-13.46 -5.28,0.9 -10.32,3.11 -14.42,6.4 -4.2,3.35 -7.42,7.82 -8.98,13.16 -3.03,10.36 0.23,23.83 15.04,38.3 h 0.01 c 12.04,11.77 26.64,21.7 41.79,28.94 16.51,7.89 33.75,12.63 49.08,13.14 15.9,0.53 29.89,-3.44 39.29,-13.05 v 0.01 c 2.84,-2.9 5.27,-6.34 7.18,-10.35 12.44,-26.03 -16.29,-73.1 -38.68,-103.72 20.78,-6.92 37.62,-15.52 51.22,-24.6 z m -7.77,-20.58 -0.14,-0.2 c -7.04,-10.13 -14.24,-20.19 -23.38,-25.7 1.68,-3 3.21,-5.94 4.58,-8.77 9.19,-3.85 18.72,-9.05 27.38,-14.35 3.94,-2.41 7.74,-4.89 11.28,-7.31 l 17.28,15.9 c -4.96,9.35 -15.73,25.26 -37,40.43 z m -83.94,-28.54 c -12.67,1.91 -25.69,4.58 -37.59,7.33 4.73,-4.3 9.03,-8.71 12.94,-13.19 2.1,-0.15 16.24,5.2 24.65,5.86 z m 47.71,-642.46 2.53,-0.01 -0.77,0.91 z m 10.9,0.28 c 1.66,0.11 3.33,0.27 5,0.45 -1.24,1.97 -2.59,4.05 -3.99,6.19 -1.4,-0.94 -2.79,-1.84 -4.21,-2.69 1.08,-1.31 2.15,-2.62 3.2,-3.95 z m 12.21,1.5 1.49,0.3 c -2.94,3.75 -5.4,6.78 -7.11,8.86 l -0.15,-0.12 c 2.09,-3.18 4.07,-6.27 5.77,-9.04 z m 8.62,2 c 8.17,2.3 16.04,5.79 23.19,10.86 4.58,3.25 8.68,6.47 12.31,9.62 4.29,5.5 8.18,11 11.7,16.44 -3.36,-1.2 -6.85,-2.31 -10.49,-3.29 l -3.7,-0.95 -1.54,-1.46 c -10.77,-10.02 -24.93,-16.57 -39.72,-20.82 2.07,-2.52 4.92,-6.08 8.25,-10.4 z m -7.31,-18.39 -2.35,-0.36 2.17,-3.23 1.31,1.02 z m -9.87,-1.23 c -20.57,-1.76 -40.69,1.25 -55.63,4.68 -15.21,-1.32 -30.16,0.02 -43.73,2.59 -13.27,-3.16 -28.08,-6.43 -42.46,-9.45 19.91,-19.26 66.45,-55.95 133.86,-12.58 4.26,2.74 8.35,5.54 12.29,8.4 -1.31,1.96 -2.76,4.11 -4.33,6.36 z m -538.62,176.24 c 0.38,1.4 0.82,2.76 1.33,4.07 2.11,5.39 4.91,9.16 7.97,11.77 -4.67,14.59 -8.82,30.05 -12.32,46.44 -2.91,13.58 -4.69,26.42 -5.51,38.55 -4.93,-24.9 -8.3,-60.79 3.7,-90.52 1.45,-3.57 3.08,-7.01 4.83,-10.31 z m 16.09,-3.83 c -1.64,-5.34 -1.85,-11.68 -1.47,-17.45 4.84,-5.65 9.98,-10.69 15.11,-15.12 -2.46,5.23 -4.84,10.6 -7.15,16.12 l -1.51,-0.34 c -0.01,0.04 -0.62,2.61 -1.19,6.95 -1.3,3.23 -2.55,6.51 -3.79,9.84 z m 210.59,393.66 c 1.1,-1.57 2.68,-2.85 4.94,-3.52 9.76,-2.89 18.4,2.88 18.4,2.88 0,0 0,-11.86 -10.24,-13.3 -4.11,-0.57 -8.89,0.13 -13.14,1.2 0.41,-3.46 1.1,-6.56 1.9,-9.21 8.67,0.7 16.53,0.95 23.12,0.96 1.3,8.62 2.61,17.76 3.8,26.85 -7.62,3.87 -15.73,7.61 -24.22,10.97 -2.55,-6 -3.95,-11.65 -4.56,-16.83 z m -57.47,-15.06 c 0,0 -3.97,16.2 -5.01,46.59 h -0.71 c -21.76,-25.96 -24,-58.98 -22.93,-78.71 2.04,1.16 4.15,2.32 6.35,3.48 11.6,6.09 23.83,10.59 35.92,13.91 -6.05,12.73 -10.06,31.47 -4.78,57.7 -1.95,-3.02 -3.89,-6.43 -5.48,-10.11 -5.6,-12.98 -3.36,-32.86 -3.36,-32.86 z m 61.44,62.97 c 4.65,5.58 10.63,12.34 17.44,19.14 -17.71,0.56 -27.36,-3.3 -42.25,-8.55 2.95,-0.93 5.91,-1.97 8.85,-3.13 5.38,-2.12 10.69,-4.63 15.96,-7.46 z m 29.45,7.57 c -5.7,-5.68 -10.8,-11.35 -14.95,-16.24 4.42,-2.9 8.8,-6.01 13.13,-9.29 0.84,8.26 1.45,16.04 1.72,22.85 z m 258.77,19.91 c -5.32,0.8 -11.1,1.2 -16.88,1.31 7.03,-2.32 13.64,-4.95 19.82,-7.8 -0.87,2.07 -1.84,4.24 -2.94,6.49 z m -7.54,-65.19 c 1.36,9 1.39,19.94 0.95,29.78 -9.33,1.22 -20.44,2.14 -33.61,2.45 6.28,-15.54 9.41,-30.25 11.08,-42.39 6.43,2.8 13.93,6.37 21.58,10.16 z m 59.59,-527.35 c -1.73,-0.23 -3.43,-0.43 -5.1,-0.6 -1.58,-1.54 -3.18,-3.09 -4.81,-4.63 3.44,1.56 6.76,3.29 9.91,5.23 z m 42.74,49.57 c 6.45,4.26 11.19,8.52 14.35,11.73 3.08,10.42 4.67,19.28 5.22,25.77 l -2.53,0.6 c -3.18,-6.4 -8.17,-15.72 -15.2,-26.79 -0.4,-3.62 -1,-7.41 -1.84,-11.31 z m -197.7,-159.98 c -1.18,-5.55 -3.05,-13.13 -5.79,-21.14 3.89,-2.78 7.9,-5.54 12.01,-8.25 3.61,10.32 4.39,21.76 4.42,29.48 -3.4,-0.12 -6.98,-0.17 -10.64,-0.09 z m -9.74,-31.37 c -3.51,-8.11 -7.98,-15.95 -13.58,-21.91 12.12,0.33 19.97,6.26 25.04,14.35 -3.91,2.49 -7.73,5.02 -11.46,7.56 z m -87.37,4.2 c -3.11,4.51 -5.82,9.05 -8.18,13.46 -7.28,0.77 -16.55,1.94 -26.94,3.67 l -6.58,-8.9 c -0.39,-23.45 -1.04,-47.5 -2.07,-71.42 14.95,20.96 29.62,42.17 43.77,63.19 z m -14.81,27.64 c -1.01,2.46 -1.88,4.79 -2.64,6.95 -1.94,-0.22 -3.77,-0.5 -5.48,-0.83 l -3.32,-4.56 c 4.07,-0.61 7.9,-1.12 11.44,-1.56 z m -86.11,36.39 c -4.1,-3.96 -8.02,-7.21 -11.4,-9.75 l 1.23,-0.63 c 3.95,3.26 7.31,6.78 10.17,10.38 z m -40.26,9.72 c 6.76,1.27 13.94,4.37 19.82,11.04 3.14,3.56 5.7,7 7.82,10.22 -16.27,7.41 -30.88,16.4 -43.58,25.68 -5.61,-6.44 -11.35,-13.18 -17.24,-20.22 11.97,-10.35 23.26,-19.14 33.18,-26.72 z m -54.61,0.56 -2.9,-3.63 c -7.02,-8.81 -13.6,-16.17 -19.8,-22.31 12.8,-5.7 27.6,-9.84 44.58,-11.21 21.38,-1.74 37.67,1.9 50.08,8.17 -1.38,0.79 -2.74,1.57 -4.07,2.39 l -0.08,-0.4 c -29.59,7.4 -42.28,12.18 -67.81,26.99 z m -152.25,238.04 c -1.37,24.62 2.48,48.48 6.33,65.3 -7.13,-14.25 -9.43,-35.1 -7.35,-56.87 0.26,-2.8 0.61,-5.61 1.02,-8.43 z m 394.81,446.64 c -29.44,2.56 -54.48,-10.57 -70.38,-22.14 2.31,-0.95 4.63,-1.97 6.97,-3.07 12.16,-5.74 22.32,-12.65 30.8,-20.23 19.48,12.07 41.34,21.16 65.63,25.16 -9.53,7.64 -20.48,14.56 -33.02,20.28 z m -82,-10.03 c 10.8,8.05 25.66,17.04 43.4,22.36 -14.19,2.85 -29.83,4.35 -47.08,4.17 1.27,-7.12 2.64,-16.19 3.68,-26.53 z m 490.29,-189.3 c -5.42,0.14 -12.7,-1.14 -20.54,-6.58 6.04,-10.12 10.86,-21.08 14.11,-32.96 6.28,7.46 12.72,14.68 19.14,21.35 -3.84,6.33 -8.11,12.38 -12.71,18.19 z m -37.82,-27.15 c -9.76,-19.11 -14.51,-46.15 -16.56,-61.57 0.02,-2.95 -0.03,-5.96 -0.17,-9 -0.1,-2.14 -0.25,-4.25 -0.44,-6.35 7.42,10.85 17.02,24.41 27.75,38.5 -1.14,14.03 -4.89,26.8 -10.58,38.42 z m -23.9,-16.62 c 3.54,11.81 8.2,23.49 14.29,32.81 -22.64,32.12 -60.24,53.87 -93.64,67.89 1.35,-3.5 2.69,-7.2 4.02,-11.1 25.89,-16.15 60.43,-44.95 75.33,-89.6 z m 31.92,50.91 c 5.78,3.98 11.44,6.4 16.72,7.78 -40.93,42.5 -99.03,68.97 -135.27,82.44 -0.73,-3.31 -1.45,-6.64 -2.14,-10.01 39.02,-14.23 89.7,-39.34 120.69,-80.21 z m 64.77,-166.54 c 13.83,3.76 29.61,12.38 39.99,31.53 l 1.01,-0.54 c 8.67,25.14 10.47,51.75 9.93,72.98 -6.71,-9.32 -14.49,-18.74 -23.46,-27.62 l -3.08,-6.61 v -0.01 c 0.76,-30.26 -8.56,-52.92 -24.39,-69.73 z m 21.87,-5.28 c -15.18,-8.46 -30.96,-10.41 -41.2,-10.61 -17.69,-11.36 -39.44,-18.64 -62.79,-23.05 l -0.14,-1.39 c 0.75,-1.43 1.49,-2.91 2.2,-4.43 15.75,-3.38 43.35,-5.86 69.87,8.5 9.96,7.17 20.07,16.33 29.73,28.04 0.79,0.97 1.57,1.94 2.33,2.94 z m -150.65,-87.77 c 10.7,3.97 22.14,12.75 28.59,31.46 -1.99,5.65 -4.47,10.58 -7.12,14.82 -1.42,-1.04 -2.84,-2.04 -4.26,-3.03 -2.75,-15.98 -9.57,-30.8 -17.21,-43.25 z m 31.75,88.42 c -1.02,5.38 -2.32,10.4 -3.77,15 -2.53,-6.34 -5.4,-12.45 -8.55,-18.33 1.46,-1.13 3.13,-2.48 4.93,-4.09 2.52,2.37 4.99,4.84 7.39,7.42 z m 4.49,30.74 c 2.14,-5.28 4.25,-11.36 6.06,-18.09 4.57,6.17 8.72,12.84 12.25,20.04 -6.38,-0.86 -12.48,-1.5 -18.31,-1.95 z m -3.26,-109.06 c -11.57,-17.76 -27.94,-23.86 -40.81,-25.68 0.12,-1.19 0.23,-2.39 0.31,-3.56 12.1,-0.05 25,-0.03 38.39,0.05 l 0.11,0.56 c 2.12,10.63 2.63,20.15 2,28.63 z m 54.94,29.9 c -13.81,-1.85 -26.45,-0.79 -36.1,0.9 1.09,-2.94 2.08,-6 2.93,-9.22 8.05,0.87 19.75,3.03 33.17,8.32 z m -210.21,-275.14 c 1.78,-2.53 2.24,-4.53 1.83,-5.74 1.15,-3.44 -0.24,-3.64 -3.8,-0.81 -1.07,0.48 -2.27,1.36 -3.52,2.67 -4.09,-2.82 -8.34,-5.63 -12.77,-8.42 -29.03,-18.33 -56.58,-26.73 -80.98,-29.48 6.97,-10.46 19.39,-32.14 28,-64.2 11.64,-3.53 23.36,-5.69 34.85,-5.93 35.67,-0.76 72.84,2.59 74.16,46.16 0.36,11.68 -2.25,23.63 -5.97,33.7 -4.72,12.76 -12.99,26.96 -21.5,39.74 -3.31,-2.57 -6.75,-5.14 -10.3,-7.69 z m -112.69,-43.32 c -1.93,-0.24 -4.25,-0.5 -6.86,-0.74 -0.01,-9.19 -1,-23.63 -5.98,-36.64 13.52,-8.25 27.88,-15.7 42.53,-21.26 -9.8,29.49 -22.83,49.4 -29.69,58.64 z m -164.95,4.18 -2.68,3.56 -0.05,-4.74 1.61,-0.29 z m 41.23,36.21 c 8.99,-5.5 18.44,-9.71 25.51,-8.91 7.71,0.87 13.69,5.21 18.05,9.96 l 7.21,11.3 c -15.01,-2.93 -27.93,-5.22 -35.76,-6.28 -3.77,-0.51 -7.64,-0.93 -11.59,-1.25 z m -131.71,82.78 c 5.88,-6.33 14.29,-14.48 23.9,-21.21 7.97,6.69 16.33,16.85 21.97,32.08 l -16.27,20.02 c -9.03,-9.07 -18.94,-19.36 -29.6,-30.89 z m 49.63,-33.13 c 9.58,-1.86 19.26,-0.4 28.09,6.71 -0.09,14.56 -0.21,27.72 -0.33,39.07 l -5.35,-3.16 c -5.38,-19.3 -13.73,-32.98 -22.41,-42.62 z m 37.91,15.35 c 6.62,6.4 11.31,12.31 14.61,17.54 l -14.2,19.11 -0.88,-0.52 z m 18.83,-28.2 c 5.99,-1.23 20.01,-4.02 34.19,-6.05 6.38,8.7 12.6,17.24 18.63,25.56 -8.43,3.49 -17.76,8.1 -27.14,14.11 -4.97,-6.69 -9.99,-13.32 -15.02,-19.88 -3.55,-4.62 -7.1,-9.2 -10.66,-13.74 z m 45.99,-7.53 c 6.52,-0.67 12.55,-1.03 17.26,-0.81 1.74,0.08 3.47,0.29 5.19,0.59 4.3,1.22 8.5,2.54 12.61,3.91 4.54,1.97 8.7,4.32 12.19,6.55 l 1.56,2.51 c -4.64,2.06 -7.76,3.65 -8.95,4.28 -2.57,0.45 -11.55,2.18 -23.58,6.4 -5.27,-7.64 -10.71,-15.45 -16.28,-23.43 z m -137.31,484.65 4.8,-35.18 -7.15,-6.46 c -5.24,1.53 -10.82,3.08 -16.76,4.65 -7.16,1.9 -13.81,3.4 -19.97,4.57 6.57,8.77 14.98,17.13 25.71,24.43 4.47,3.04 8.93,5.69 13.37,7.99 z m 163.29,76.9 c 13.34,1.48 35.17,3.59 59.64,4.76 9.01,0.43 16.52,0.52 22.75,0.38 -3.48,9.64 -8.29,20.28 -14.77,31.02 -32.72,-2.12 -57.21,-9.68 -75.13,-18.43 3.07,-6.01 5.53,-11.99 7.51,-17.73 z m 84.66,-1.54 c -6.42,0.18 -14.53,0.11 -24.71,-0.38 -13.83,-0.66 -26.81,-1.63 -37.87,-2.6 26.47,-1.55 48.07,-6.39 65.46,-7.39 -0.77,3.23 -1.72,6.7 -2.88,10.37 z m -443.56,-276.65 c 2.46,-5.56 0.54,-11.95 -4.28,-15.31 0.78,-11.48 2.47,-23.63 5.21,-36.51 3.17,-14.77 6.85,-28.75 11,-42.01 2.93,14.58 9.47,30.61 22.93,44.4 -6.37,14.14 -13.08,31.33 -19.14,50.57 -17.39,2.35 -15.73,-1.13 -15.72,-1.14 z m -3.44,22.73 c 3.59,0.72 7.74,1.19 12.54,1.32 -0.63,2.43 -1.25,4.87 -1.86,7.34 -3.06,-1.95 -6.63,-4.33 -10.49,-7.1 z m 42.85,-1.15 c 7.88,-1.28 16.68,-3.08 26.54,-5.51 -4.07,21.88 -4.04,40.43 -0.74,56.03 4.53,21.41 15.08,37.27 29.62,48.54 -1.07,3.19 -2.28,7.1 -3.34,11.42 -23.56,-19.51 -51.25,-54.34 -52.08,-110.48 z m 44.59,-10.37 c 3.49,-1.04 6.86,-2.09 10.1,-3.15 -1.19,16.13 1.34,36.54 13.3,59.37 2.95,5.63 6.32,10.62 10,15.06 -0.54,5.9 -1.13,18.03 0.86,33.02 -1.67,-0.8 -3.3,-1.66 -4.88,-2.57 -15.8,-9.04 -27.37,-23.34 -31.81,-44.31 -3.26,-15.39 -2.79,-34.35 2.43,-57.42 z m 12.71,-30.19 -4.45,1.51 0.79,-2.27 z m -23.91,7.38 c -2.54,0.7 -5.17,1.4 -7.9,2.1 -9.32,2.41 -17.29,4.35 -24.13,5.89 0.45,-3.81 1.01,-7.68 1.7,-11.65 2.82,-7.57 5.69,-14.64 8.51,-21.12 7.31,4.68 15.89,8.83 25.92,12.2 -1.49,4.28 -2.86,8.48 -4.1,12.58 z m 139.78,-337.07 -0.39,-3.93 2.71,3.08 z m 659.05,521.4 c -1.14,-1.39 -2.3,-2.91 -3.47,-4.58 -3.34,-4.77 -6.63,-9.82 -9.85,-15.01 0.23,-1.69 0.45,-3.52 0.67,-5.5 5.37,9.35 9.53,17.99 12.65,25.09 z m -21.84,-34.02 c -4.19,-7.38 -8.18,-14.84 -11.87,-22.08 4.49,5.59 8.57,11.23 12.26,16.77 z m -26.56,-36.7 c 7.03,14.69 15.77,31.78 25.37,47.97 -0.97,7.76 -1.96,12.76 -2.16,13.79 v 0.02 l -0.04,0.17 v 0.02 c -5.38,28.39 -23.71,23.75 -45.55,5.23 11.63,-19.95 19.71,-42.3 22.38,-67.2 z m -747.89,-283.47 c 7.3,10.75 18.7,23.81 35.7,34.69 -14.02,11.35 -30.9,27.08 -46.28,46.96 -15.29,-17.4 -18.79,-37.11 -18.01,-53.56 4.66,-6.02 15.09,-18.46 28.59,-28.09 z m 40.57,27.9 c -16.12,-10.18 -26.83,-22.41 -33.63,-32.43 12.31,-7.56 19.36,-10.96 22.9,-12.44 l 3.58,2.59 0.05,-0.06 c 0.41,2.68 1,7.31 1.88,15.31 1.02,9.37 3.3,19.55 5.22,27.03 z m 160.18,485.63 c -0.03,-2.41 -0.09,-4.84 -0.19,-7.29 -0.42,-10.39 -1.58,-22.85 -3.09,-35.84 9.08,9.8 19.04,19.24 29.88,27.87 -5.86,4.63 -12.58,8.88 -20.32,12.52 -2.1,1 -4.2,1.9 -6.28,2.74 z m -7.37,-74.17 c -1.31,-9.04 -2.65,-17.74 -3.91,-25.57 4.38,5.27 9.42,10.41 14.35,15.02 z m -19.11,106.47 c -0.96,9.78 -2.27,18.36 -3.46,25.02 -14.02,-8.73 -26.33,-18 -36.93,-27.03 12.13,2.47 25.74,3.56 40.39,2.01 z m 471.17,-114.07 c 13.64,7.93 37.69,23.43 56.19,43.63 -5.28,1.72 -12.02,2.49 -20.62,1.55 -9.07,-0.99 -18.34,-3.26 -27.27,-6.17 -6.39,-8.11 -13.43,-18.33 -20.63,-31.05 4.12,-2.56 8.24,-5.21 12.33,-7.96 z m -18.03,11.42 c 5.09,8.98 10.12,16.77 14.93,23.49 -11.91,-4.69 -22.66,-10.1 -30.7,-14.53 5.22,-2.83 10.49,-5.81 15.77,-8.96 z m 95.32,-190.41 c -12.66,-8.13 -26.93,-14.81 -42.91,-19.16 -5.88,-17.05 -14.64,-31.89 -24.86,-44.72 35.11,9.92 62.17,29.15 67.77,63.88 z m -120.16,-27.38 c -5.02,0.19 -9.75,0.52 -14.22,0.99 3.47,-3.66 6.78,-7.71 9.82,-12.17 1.6,3.64 3.07,7.37 4.4,11.18 z m -22.3,8.63 c 7.22,-1.11 15.33,-1.86 24.38,-2.1 2.85,9.77 4.68,20.08 5.2,30.89 2.32,48.29 -21.8,81.95 -46.74,103.62 3.24,-15.64 4.47,-29.48 4.28,-41.67 2,-15.07 3.11,-31.15 2.71,-47.75 -0.3,-12.31 -0.79,-23.79 -1.4,-34.41 3.87,-2.5 7.76,-5.34 11.57,-8.58 z m 51.09,-1.33 c 6.94,0.53 14.3,1.37 22.08,2.53 5.24,12.68 8.59,26.86 9.14,42.7 -13.93,-19.11 -25.37,-36.28 -31.22,-45.23 z m 50.86,8.57 c 15.49,4.71 29.26,11.74 41.43,20.13 0.14,2.5 0.19,5.05 0.12,7.7 -0.59,23.54 -6.85,44.68 -16.84,63.62 -7.09,-7.59 -14.27,-16 -21.28,-24.66 0.77,-4.36 1.33,-8.82 1.67,-13.4 1.45,-19.72 -0.58,-37.46 -5.1,-53.39 z m -120.42,47.17 c -4.92,-15.44 -12.23,-26.18 -18.58,-33.22 5.1,-1.85 11.08,-4.38 17.38,-7.8 0.5,9.3 0.89,19.23 1.15,29.79 0.1,3.78 0.11,7.52 0.05,11.23 z m -36.06,0.88 c 0.93,-1.77 1.85,-3.55 2.75,-5.35 0.69,-1.39 1.34,-2.76 1.98,-4.16 3.14,6.69 8.09,22.37 2.52,48.16 -7.68,35.58 -25.77,6.56 -25.77,6.56 9.41,-10.44 15.41,-31.42 18.52,-45.21 z m 16.91,-51.73 c 3.19,-23.22 0.84,-43.68 -1.7,-56.82 4.46,-0.28 8.99,-0.52 13.56,-0.7 1.65,12.21 3.49,28.58 4.94,48.75 -5.87,3.8 -11.67,6.65 -16.8,8.77 z m -467.93,131.12 c 6.35,7.07 13.88,13.79 22.82,19.87 11.94,8.12 23.89,13.77 35.46,17.6 -5.06,-0.68 -10.31,-1.55 -15.64,-2.66 l -0.76,-1.22 c -0.02,0 -0.44,0.27 -1.18,0.81 -13.76,-3 -28.03,-7.6 -41.3,-14.57 -5.15,-2.7 -9.74,-5.37 -13.83,-7.98 4.84,-3.77 10.39,-8.22 14.43,-11.85 z m -27.86,-127.53 c -10.37,-19.79 -12.55,-37.11 -11.57,-50.53 3.84,13.17 9.82,29.43 19.16,47.35 8.21,15.77 19.31,27.69 30.47,36.56 -14.37,-5.7 -28.83,-15.76 -38.06,-33.38 z m -79.16,-126.03 c -23.89,-29.54 -14.85,-67.28 -14.81,-67.44 l -1.51,-0.35 c 2.12,-4.95 4.29,-9.77 6.52,-14.49 0,18.85 5.27,40.7 23.42,59.87 -4.84,7.03 -9.44,14.5 -13.62,22.41 z m 27.2,309.31 c -2.26,3.23 -6.23,8.51 -12.34,15.33 -18.86,-22.52 -30.43,-48.44 -36.71,-75.68 25.16,1.22 45.94,-4.31 58.42,-8.88 1.26,3.09 3.04,6.73 5.58,10.78 -5.62,11.61 -14.57,33.88 -14.95,58.45 z m 410.91,176.75 3.08,3.62 c -4.17,1.06 -8.49,2.05 -12.98,2.95 3.45,-2.12 6.76,-4.32 9.9,-6.57 z m 161.58,-378.11 c -1.36,-17.58 -2.99,-32.1 -4.49,-43.31 4.86,-0.11 9.75,-0.17 14.66,-0.15 4.12,5.43 8.02,11.14 11.6,17.15 -5.78,11.17 -13.59,19.74 -21.77,26.31 z m -7.29,-135.11 2.5,2.68 -0.02,0.17 c -1.45,11.58 -4.31,21.43 -7.59,29.54 l -1.39,-0.49 c -4.35,-3.55 -8.59,-6.83 -12.7,-9.86 -0.2,-4.01 -0.05,-8.62 0.68,-13.82 0.36,-2.46 0.68,-5.09 1,-7.81 5.69,-0.18 11.54,-0.32 17.52,-0.41 z m 61.67,-16.89 c -11.72,-0.06 -23.05,-0.06 -33.76,-0.02 -0.82,-10.24 -3.01,-19.37 -5.68,-27.14 6.34,-2.04 13,-4.08 19.94,-6.08 7.55,8.76 14.54,19.7 19.5,33.24 z m -39.21,46.24 c 3.7,6.16 7.1,12.92 9.71,20.05 -5.01,-2.78 -9.78,-5.23 -14.21,-7.35 1.62,-3.92 3.14,-8.17 4.5,-12.7 z m -12.15,-97.91 c -2.16,-3.27 -3.63,-5.01 -3.64,-5.03 l -9.63,8.01 -3.55,0.81 8.2,-15.1 c 3.75,1.58 10.05,4.56 17.34,9.4 z m -518.99,-54.57 1.67,-1.71 c 9.16,-7.33 23.64,-4.82 23.64,-4.82 0,0 -7.36,6.9 -12.64,12.66 -5.28,5.77 -12.73,20.92 -12.73,20.92 0,0 -6.45,-18.57 0.06,-27.05 z m 126.6,-87.64 c -6.34,1.18 -12.87,2.62 -19.62,4.35 -3.61,-10.02 -10.13,-23.09 -21.6,-34.34 3.98,-1.61 8.05,-3.11 12.14,-4.5 9.32,10.78 19.08,22.35 29.08,34.49 z m -256.72,28.71 c -0.2,2.3 1.49,4.33 3.78,4.53 2.29,0.2 4.32,-1.49 4.53,-3.78 0.03,-0.34 9.24,-103.47 66.87,-63.61 -43.88,25.66 -61.68,66.77 -61.76,66.93 -1.49,3.37 0.02,7.32 3.39,8.82 3.36,1.5 7.32,-0.01 8.81,-3.38 0.07,-0.14 17.45,-40.32 60.73,-63.34 6.61,6.04 13.74,13.76 21.49,23.48 l 2.21,2.79 c -10.94,6.86 -22.14,15.1 -32.86,24.96 -25.97,23.9 -42.77,52.88 -52.83,74.9 -23.29,-15.14 -47.53,-43.15 -40.86,-93.04 h 0.01 c 3.38,-25.26 13.3,-44.28 26.49,-57.48 11.38,-11.38 25.24,-18.45 39.43,-21.46 14.16,-3 28.64,-1.96 41.31,2.86 9.78,3.73 18.5,9.72 25.12,17.84 -11.78,2.71 -22.41,6.67 -31.96,11.41 -72.55,-59.52 -83.87,67.17 -83.9,67.57 z m 119.45,-15.72 4.22,5.34 c -24.88,22.21 -52.12,51.04 -76.22,89.49 l -4.47,3.06 c -1.76,-0.75 -3.6,-1.58 -5.5,-2.5 9.33,-20.69 25.15,-48.41 49.91,-71.19 10.48,-9.64 21.42,-17.62 32.06,-24.2 z m 12.53,15.9 13.67,17.5 -23.02,-8.88 c 3.14,-2.99 6.26,-5.85 9.35,-8.62 z m 43.13,55.78 c 9.19,12.06 17.57,23.19 25.11,33.31 -9,5.51 -24.87,12.25 -36.58,0.94 -12.88,-12.42 2.68,-27.41 11.47,-34.25 z m -44.95,-72.03 -3.32,-4.03 c 7.28,-4.13 14.33,-7.62 20.9,-10.53 -5.64,4.5 -11.52,9.33 -17.58,14.56 z m 131.47,-19.82 c -8.67,-10.51 -17.17,-20.58 -25.35,-30.08 8.4,-2.54 16.84,-4.65 24.97,-6.4 0.19,12.5 0.31,24.71 0.38,36.48 z m -161.48,510.8 c 3.17,3.35 6.83,6.79 11.06,10.29 -2.13,15.16 -5.19,54.9 13.93,91.05 -3.68,-0.95 -7.33,-2.07 -10.96,-3.41 -35.23,-30.61 -23.56,-75.04 -14.03,-97.93 z m 90.07,46.98 c 5.37,1.13 10.64,2.04 15.77,2.77 -2.93,11.55 -3.98,27.77 3.68,46.34 -7.7,2.45 -15.61,4.53 -23.63,6.07 -6.17,-26.84 -1.65,-44.43 4.18,-55.18 z m -113.28,-84.58 c -11.87,4.21 -31.44,9.13 -55.07,7.34 -1.77,-10.63 -2.81,-21.4 -3.22,-32.21 -0.35,-9.29 -0.25,-18.6 0.24,-27.85 19.79,27.58 43.64,44.32 58.05,52.72 z m -146.34,-73.1 c 0.85,-4.47 2.22,-8.73 3.99,-12.64 2.04,-4.54 4.6,-8.61 7.45,-12.02 6.31,-7.54 13.06,-11.63 18.7,-12.64 v -0.02 c 2.22,-0.39 4.16,-0.27 5.69,0.34 1.21,0.48 2.19,1.34 2.82,2.55 1.24,2.34 1.46,5.99 0.23,10.91 -2.24,8.99 -16.45,17.23 -31.63,21.7 -2.41,0.72 -4.84,1.32 -7.25,1.82 z m -8.21,-18.14 c -2.7,5.99 -4.67,12.62 -5.56,19.63 -4.78,-0.03 -8.87,-0.74 -11.66,-2.26 v -0.03 c -1.91,-1.03 -3.12,-2.59 -3.21,-4.73 -0.56,-11.77 12.18,-15.43 22.32,-16.48 -0.66,1.26 -1.29,2.55 -1.89,3.87 z m 416.73,249 c 2.59,-3.07 4.97,-6.19 7.14,-9.35 18.04,9.04 41.89,16.92 72.77,20.05 -3.1,4.02 -6.46,7.98 -10.1,11.86 -2.21,-0.21 -4.45,-0.44 -6.71,-0.71 -23.3,-2.8 -44.32,-10.76 -63.1,-21.85 z m -1.17,-47.39 c -1.3,3.53 -2.84,7.17 -4.65,10.82 -7.01,-5.21 -12.05,-10.13 -15.43,-13.92 5.36,1.03 12.21,2.16 20.08,3.1 z m 126.63,60.68 c 9.96,0.34 19.22,0.5 27.76,0.55 -9.91,3.34 -20.8,6.02 -32.69,7.71 1.76,-2.75 3.41,-5.51 4.93,-8.26 z m 374.81,-521.93 c -3.06,-5.7 -7.98,-11.68 -15.19,-11.68 -7.1,0 -13.01,6.75 -17.07,13.28 11.09,-0.87 21.89,-1.42 32.26,-1.6 z m -833.43,241.48 c -0.93,-3.16 -1.79,-6.4 -2.57,-9.73 l 4.05,2.53 c -0.51,2.39 -1,4.79 -1.48,7.2 z m -49.97,-143.94 c -2.58,9.64 -4.34,19.56 -5.27,29.33 -0.9,9.46 -1.01,18.83 -0.31,27.73 -4.04,-11.25 -5.44,-23.5 -2.5,-36.47 1.54,-6.82 4.33,-13.72 8.08,-20.59 z m 639.62,33.67 c 3.6,2.44 7.45,5.17 11.44,8.15 0.66,1.35 1.14,2.85 1.35,4.49 1.6,12.52 -10.89,17 -10.89,17 0,0 1.24,-17.85 -3.2,-25.65 -1.47,-2.59 -0.59,-3.87 1.3,-3.99 z m -411.21,-60.57 c 14.08,-0.96 27.53,2.57 27.53,2.57 0,0 -3.21,-9.63 -10.89,-10.26 -7.68,-0.65 -16.64,7.69 -16.64,7.69 z m 322.82,-76.54 c 1.6,-0.33 18.89,-7.06 34.9,10.25 16.01,17.33 9.61,39.77 9.61,39.77 0,0 -5.13,-17.96 -20.81,-31.75 -15.7,-13.78 -23.7,-18.27 -23.7,-18.27 z m -4.16,30.78 c 0,0 9.92,-3.52 20.5,4.49 10.56,8.02 4.47,21.49 4.47,21.49 z m 49.62,-40.09 c 0,0 15.37,4.81 20.5,20.85 5.12,16.04 4.48,24.69 4.48,24.69 0,0 13.13,-19.88 4.8,-32.07 -8.32,-12.18 -29.78,-13.47 -29.78,-13.47 z m 14.36,287.98 c 0,0 3.67,-10.58 9.92,-12.18 6.24,-1.61 10.24,-0.16 10.24,-0.16 0,0 2.72,-14.75 -8.32,-11.7 -11.04,3.05 -11.84,24.04 -11.84,24.04 z m -7.05,36.55 c 12.01,-11.07 23.21,-33.03 23.21,-33.03 0,0 -13.92,2.89 -20.64,9.94 -6.73,7.06 -2.57,23.09 -2.57,23.09 z m 9.99,46.52 -31.06,38.16 c 0,0 20.81,3.53 29.13,-6.41 8.33,-9.94 1.93,-31.75 1.93,-31.75 z m -52.83,4.48 c 0,0 2.24,19.24 -16.65,39.13 -18.89,19.89 -36.83,1.28 -36.83,1.28 0,0 24.98,-8.98 33.63,-17.31 8.64,-8.34 19.85,-23.1 19.85,-23.1 z m -352.44,-151.34 c 1.45,5.77 10.73,15.54 10.73,15.54 0,0 -10.88,1.44 -12.64,-3.84 -1.76,-5.3 1.91,-11.7 1.91,-11.7 z m -38.88,-110.13 c 0,0 9.91,-5.45 19.52,-7.05 9.61,-1.6 16.65,-0.96 16.65,-0.96 0,0 -22.09,-12.83 -31.21,-5.77 -9.12,7.05 -4.96,13.78 -4.96,13.78 z m 52.89,21.92 c 0,0 -4.48,-10.91 -4.16,-24.7 0.32,-13.79 10.89,-18.91 10.89,-18.91 0,0 -6.97,16.89 -6.73,43.61 z m 111.74,-115.13 c 0,0 16.51,-12.18 34.26,-17 3.39,-0.89 6.53,-1.64 9.37,-2.24 l 0.16,-0.03 0.16,-0.03 0.15,-0.04 0.16,-0.03 0.02,-0.01 0.14,-0.02 0.16,-0.03 0.15,-0.03 0.15,-0.04 0.1,-0.02 h 0.06 l 0.15,-0.03 0.16,-0.04 0.15,-0.02 0.15,-0.04 h 0.02 l 0.13,-0.02 0.16,-0.03 0.15,-0.03 0.15,-0.03 0.09,-0.02 0.06,-0.01 0.15,-0.03 0.14,-0.03 0.15,-0.02 0.15,-0.03 h 0.02 l 0.13,-0.03 0.14,-0.02 0.15,-0.03 0.15,-0.02 0.09,-0.02 0.05,-0.01 0.15,-0.03 0.13,-0.03 0.15,-0.02 0.15,-0.02 0.01,-0.01 0.12,-0.02 0.15,-0.02 0.14,-0.02 0.14,-0.03 0.09,-0.01 0.05,-0.02 0.14,-0.02 0.14,-0.02 0.14,-0.02 0.13,-0.03 h 0.02 l 0.12,-0.02 0.14,-0.02 0.13,-0.03 0.14,-0.02 0.08,-0.01 0.05,-0.01 0.13,-0.02 0.14,-0.02 0.13,-0.02 0.13,-0.02 h 0.02 l 0.12,-0.02 0.13,-0.02 0.13,-0.02 0.13,-0.02 0.08,-0.01 0.05,-0.01 0.12,-0.02 0.14,-0.02 0.12,-0.02 0.13,-0.02 h 0.02 l 0.1,-0.01 0.13,-0.02 0.13,-0.02 0.12,-0.02 0.08,-0.01 0.04,-0.01 0.13,-0.02 c 6.96,-0.98 11.03,-0.98 11.03,-0.98 0,0 -6.6,-4.52 -16.43,-6.79 l -0.16,-0.04 -0.16,-0.03 -0.1,-0.03 h -0.06 l -0.16,-0.05 -0.17,-0.03 -0.31,-0.07 -0.08,-0.02 -0.09,-0.01 -0.16,-0.04 -0.16,-0.03 -0.17,-0.03 -0.16,-0.03 -0.06,-0.01 -0.11,-0.02 -0.17,-0.03 -0.16,-0.04 -0.17,-0.03 -0.2,-0.04 -0.13,-0.02 -0.17,-0.02 -0.17,-0.03 -0.17,-0.03 -0.16,-0.03 h -0.01 l -0.17,-0.02 -0.16,-0.03 -0.18,-0.02 -0.17,-0.03 -0.15,-0.02 h -0.02 l -0.17,-0.02 -0.17,-0.03 -0.18,-0.02 -0.18,-0.03 -0.12,-0.01 -0.05,-0.01 -0.17,-0.02 -0.18,-0.02 -0.17,-0.02 -0.18,-0.02 -0.11,-0.01 h -0.06 l -0.18,-0.02 -0.18,-0.02 -0.18,-0.02 -0.18,-0.02 h -0.08 l -0.1,-0.01 -0.18,-0.02 -0.17,-0.01 -0.19,-0.01 -0.18,-0.02 h -0.05 -0.12 l -0.19,-0.01 -0.17,-0.02 h -0.19 l -0.18,-0.02 h -0.03 -0.16 l -0.18,-0.01 -0.18,-0.01 h -0.19 l -0.18,-0.01 h -0.01 l -0.18,-0.01 h -0.19 -0.18 -0.19 l -0.16,-0.01 h -0.02 -0.19 -0.18 -0.19 c -3.76,0.01 -7.73,0.5 -11.81,1.67 -21.13,6.09 -24.34,28.22 -24.34,28.22 z m 131.91,-65 c 0,0 5.44,-8.33 12.32,-11.54 6.88,-3.2 -2.09,-5.93 -10.08,-1.12 -8,4.81 -2.24,12.66 -2.24,12.66 z m 12.81,16.57 c 0,0 28.17,-7.37 47.71,1.93 19.53,9.3 26.89,18.6 26.89,18.6 0,0 -16.64,-47.46 -35.86,-46.82 -19.21,0.65 -38.74,26.29 -38.74,26.29" />
      </g>
    </g>
  </g>
</svg>
