<?xml version="1.0" encoding="UTF-8" standalone="no"?>
<!-- Generator: Adobe Illustrator 16.0.0, SVG Export Plug-In . SVG Version: 6.00 Build 0)  -->

<svg
   xmlns:dc="http://purl.org/dc/elements/1.1/"
   xmlns:cc="http://creativecommons.org/ns#"
   xmlns:rdf="http://www.w3.org/1999/02/22-rdf-syntax-ns#"
   xmlns:svg="http://www.w3.org/2000/svg"
   xmlns="http://www.w3.org/2000/svg"
   xmlns:sodipodi="http://sodipodi.sourceforge.net/DTD/sodipodi-0.dtd"
   xmlns:inkscape="http://www.inkscape.org/namespaces/inkscape"
   version="1.1"
   id="Capa_1"
   x="0px"
   y="0px"
   width="200"
   height="200"
   viewBox="0 0 200 200"
   xml:space="preserve"
   sodipodi:docname="linkedin.svg"
   inkscape:version="0.92.3 (2405546, 2018-03-11)"><metadata
   id="metadata40"><rdf:RDF><cc:Work
       rdf:about=""><dc:format>image/svg+xml</dc:format><dc:type
         rdf:resource="http://purl.org/dc/dcmitype/StillImage" /><dc:title /></cc:Work></rdf:RDF></metadata><defs
   id="defs38" /><sodipodi:namedview
   pagecolor="#ffffff"
   bordercolor="#666666"
   borderopacity="1"
   objecttolerance="10"
   gridtolerance="10"
   guidetolerance="10"
   inkscape:pageopacity="0"
   inkscape:pageshadow="2"
   inkscape:window-width="1878"
   inkscape:window-height="1052"
   id="namedview36"
   showgrid="false"
   inkscape:zoom="0.54868791"
   inkscape:cx="-106.61798"
   inkscape:cy="215.0585"
   inkscape:window-x="42"
   inkscape:window-y="0"
   inkscape:window-maximized="1"
   inkscape:current-layer="Capa_1" />
<circle
   style="fill:#495057;fill-opacity:1;stroke-width:2.20175648"
   id="path831"
   cx="100"
   cy="100"
   r="100" /><g
   id="g3"
   transform="matrix(0.1859959,0,0,0.1859959,60,59.999907)"
   style="fill:#ffffff;fill-opacity:1">
	<path
   id="LinkedIn"
   d="M 430.117,261.543 V 420.56 H 337.929 V 272.193 c 0,-37.271 -13.334,-62.707 -46.703,-62.707 -25.473,0 -40.632,17.142 -47.301,33.724 -2.432,5.928 -3.058,14.179 -3.058,22.477 V 420.56 h -92.219 c 0,0 1.242,-251.285 0,-277.32 h 92.21 v 39.309 c -0.187,0.294 -0.43,0.611 -0.606,0.896 h 0.606 v -0.896 c 12.251,-18.869 34.13,-45.824 83.102,-45.824 60.673,-0.001 106.157,39.636 106.157,124.818 z M 52.183,9.558 C 20.635,9.558 0,30.251 0,57.463 c 0,26.619 20.038,47.94 50.959,47.94 h 0.616 c 32.159,0 52.159,-21.317 52.159,-47.94 C 103.128,30.251 83.734,9.558 52.183,9.558 Z M 5.477,420.56 H 97.661 V 143.24 H 5.477 Z"
   inkscape:connector-curvature="0"
   style="fill:#ffffff;fill-opacity:1" />
</g>
<g
   id="g5"
   transform="translate(0,-230.117)">
</g>
<g
   id="g7"
   transform="translate(0,-230.117)">
</g>
<g
   id="g9"
   transform="translate(0,-230.117)">
</g>
<g
   id="g11"
   transform="translate(0,-230.117)">
</g>
<g
   id="g13"
   transform="translate(0,-230.117)">
</g>
<g
   id="g15"
   transform="translate(0,-230.117)">
</g>
<g
   id="g17"
   transform="translate(0,-230.117)">
</g>
<g
   id="g19"
   transform="translate(0,-230.117)">
</g>
<g
   id="g21"
   transform="translate(0,-230.117)">
</g>
<g
   id="g23"
   transform="translate(0,-230.117)">
</g>
<g
   id="g25"
   transform="translate(0,-230.117)">
</g>
<g
   id="g27"
   transform="translate(0,-230.117)">
</g>
<g
   id="g29"
   transform="translate(0,-230.117)">
</g>
<g
   id="g31"
   transform="translate(0,-230.117)">
</g>
<g
   id="g33"
   transform="translate(0,-230.117)">
</g>
</svg>