<svg xmlns="http://www.w3.org/2000/svg" xml:space="preserve" width="200" height="200"><g transform="matrix(1.3 0 0 -1.3 0 200)"><circle cx="75" cy="-75" r="75" style="fill:#495057;fill-opacity:1;stroke-width:1.8509475" transform="scale(1 -1)"/><g style="fill:#fff;fill-opacity:1"><g style="fill:#fff;fill-opacity:1"><path d="M0 0a60.4 60.4 0 0 1-19-117.7c3-.5 4 1.3 4 3v11.2c-16.8-3.7-20.4 7-20.4 7-2.7 7-6.7 9-6.7 9-5.5 3.7.4 3.6.4 3.6 6-.4 9.3-6.2 9.3-6.2 5.4-9.3 14.1-6.6 17.5-5 .6 3.8 2.2 6.5 3.9 8-13.4 1.5-27.5 6.7-27.5 29.9 0 6.6 2.3 12 6.2 16.2-.6 1.5-2.7 7.6.6 16 0 0 5 1.6 16.6-6.2a58 58 0 0 0 30.2 0C26.7-23.4 31.7-25 31.7-25c3.3-8.4 1.2-14.5.6-16 3.9-4.3 6.2-9.6 6.2-16.2C38.5-80.4 24.4-85.5 11-87c2.1-1.9 4-5.6 4-11.2v-16.6c0-1.6 1-3.5 4.1-2.9A60.4 60.4 0 0 1 0 0" style="fill:#fff;fill-opacity:1;fill-rule:evenodd;stroke:none" transform="matrix(.5 0 0 .5 75 104.3)"/></g><g style="fill:#fff;fill-opacity:1"><path d="M0 0c-.1-.3-.6-.4-1-.2-.5.2-.7.6-.6 1 .2.2.6.3 1 .1C0 .7.3.3 0 0" style="fill:#fff;fill-opacity:1;fill-rule:nonzero;stroke:none" transform="matrix(.5 0 0 .5 56.4 61.2)"/></g><g style="fill:#fff;fill-opacity:1"><path d="M0 0c-.3-.3-.9-.1-1.2.3-.4.4-.5 1-.2 1.2.3.3.8.2 1.2-.2C.2.8.3.3 0 0" style="fill:#fff;fill-opacity:1;fill-rule:nonzero;stroke:none" transform="matrix(.5 0 0 .5 57.6 59.8)"/></g><g style="fill:#fff;fill-opacity:1"><path d="M0 0c-.4-.3-1 0-1.4.5-.3.6-.3 1.2 0 1.5.4.2 1 0 1.4-.5C.4.9.4.3 0 0" style="fill:#fff;fill-opacity:1;fill-rule:nonzero;stroke:none" transform="matrix(.5 0 0 .5 58.8 58.1)"/></g><g style="fill:#fff;fill-opacity:1"><path d="M0 0c-.3-.4-1-.3-1.6.2-.5.5-.6 1.2-.3 1.6.3.3 1 .2 1.6-.3C.2 1.1.4.4 0 0" style="fill:#fff;fill-opacity:1;fill-rule:nonzero;stroke:none" transform="matrix(.5 0 0 .5 60.4 56.4)"/></g><g style="fill:#fff;fill-opacity:1"><path d="M0 0c-.1-.5-.8-.7-1.5-.5-.7.2-1.1.8-1 1.3.1.4.8.7 1.5.4C-.3 1 .1.5 0 0" style="fill:#fff;fill-opacity:1;fill-rule:nonzero;stroke:none" transform="matrix(.5 0 0 .5 62.6 55.5)"/></g><g style="fill:#fff;fill-opacity:1"><path d="M0 0c0-.5-.6-1-1.3-1-.7 0-1.3.5-1.3 1s.6.9 1.3.9C-.6.9 0 .5 0 0" style="fill:#fff;fill-opacity:1;fill-rule:nonzero;stroke:none" transform="matrix(.5 0 0 .5 65 55.3)"/></g><g style="fill:#fff;fill-opacity:1"><path d="M0 0c0-.5-.4-1-1.1-1.1-.7-.1-1.4.2-1.5.6 0 .5.5 1 1.2 1.2C-.7.7-.1.5 0 0" style="fill:#fff;fill-opacity:1;fill-rule:nonzero;stroke:none" transform="matrix(.5 0 0 .5 67.4 55.7)"/></g></g></g></svg>