<svg xmlns="http://www.w3.org/2000/svg" xml:space="preserve" width="200" height="200"><circle cx="100" cy="100.1" r="99.5" style="fill:#495057;fill-opacity:1;stroke-width:1.96338"/><path d="M99.8 66.6c10.8 0 12 0 16.4.2 11 .5 16 5.7 16.6 16.6.1 4.3.2 5.6.2 16.4 0 10.8 0 12-.2 16.3-.6 11-5.7 16.2-16.6 16.6-4.3.2-5.6.3-16.4.3-10.8 0-12.1 0-16.4-.3-11-.5-16-5.7-16.6-16.6a280 280 0 0 1-.2-16.3c0-10.8 0-12.1.2-16.4.5-10.9 5.6-16 16.6-16.6 4.3-.2 5.6-.2 16.4-.2zm0-7.3c-11 0-12.4 0-16.7.2-14.7.7-22.9 8.9-23.6 23.6-.2 4.3-.2 5.7-.2 16.7s0 12.4.2 16.7c.7 14.7 8.9 22.9 23.6 23.5 4.3.2 5.7.3 16.7.3s12.4 0 16.7-.3c14.7-.6 22.9-8.8 23.5-23.5.2-4.3.3-5.7.3-16.7s0-12.4-.3-16.7c-.6-14.7-8.8-22.9-23.5-23.6-4.3-.2-5.7-.2-16.7-.2zm0 19.7a20.8 20.8 0 1 0 0 41.6 20.8 20.8 0 0 0 0-41.6zm0 34.3a13.5 13.5 0 1 1 0-27 13.5 13.5 0 0 1 0 27zm21.6-40a4.9 4.9 0 1 0 0 9.7 4.9 4.9 0 0 0 0-9.7z" style="fill:#fff;stroke-width:3.37493"/></svg>