<svg xmlns="http://www.w3.org/2000/svg" width="200" height="200"><circle cx="100" cy="100" r="100" style="fill:#495057;fill-opacity:1;stroke-width:1.87238443"/><path d="M158.3 182.2v-53.6h17.8V200H15.6v-71.4h17.8v53.6z" style="fill:#fff;fill-opacity:1;stroke-width:2.3094666" transform="matrix(.4 0 0 .4 60 60)"/><path d="m53 123.6 87.3 18.2 3.7-17.6L56.7 106zM64.5 82l80.9 37.6 7.4-16.1-80.9-38ZM87 42.3l68.5 57L167 85.7l-68.6-57ZM131.3 0 117 10.6l53 71.6 14.4-10.6ZM51.2 164.2h89.1v-17.8H51.2Z" style="fill:#fff;fill-opacity:1;stroke-width:2.3094666" transform="matrix(.4 0 0 .4 60 60)"/></svg>